<svg xmlns="http://www.w3.org/2000/svg" viewBox="0 0 512 512">
  <defs>
    <linearGradient id="goldGradient" x1="0%" y1="0%" x2="100%" y2="100%">
      <stop offset="0%" stop-color="#FFD700" />
      <stop offset="50%" stop-color="#DAA520" />
      <stop offset="100%" stop-color="#B8860B" />
    </linearGradient>
    <radialGradient id="bgGradient" cx="50%" cy="50%" r="50%" fx="50%" fy="50%">
      <stop offset="0%" stop-color="#2b241f" />
      <stop offset="100%" stop-color="#1b120d" />
    </radialGradient>
    <filter id="glow" x="-50%" y="-50%" width="200%" height="200%">
      <feGaussianBlur stdDeviation="15" result="blur" />
      <feComposite in="SourceGraphic" in2="blur" operator="over" />
    </filter>
  </defs>
  
  <!-- Background Circle with deep gradient -->
  <circle cx="256" cy="256" r="240" fill="url(#bgGradient)" stroke="url(#goldGradient)" stroke-width="8" />
  
  <!-- Inner Glow Ring -->
  <circle cx="256" cy="256" r="220" fill="none" stroke="#d2691e" stroke-width="2" opacity="0.5" />

  <!-- Om Symbol -->
  <g transform="translate(106, 106) scale(0.6)" fill="url(#goldGradient)" filter="url(#glow)">
      <path d="M228.377,236.46c21.579,15.75,37.362,38.995,43.209,65.346c1.642,7.373,2.5,15.006,2.5,22.75
          c0,46.127-30.824,85.132-72.771,97.686c-11.896,3.561-24.471,5.485-37.408,5.485c-42.062,0-80.125-20.254-104.536-51.536
          c-10.428-13.364-18.062-28.74-21.968-45.375c-1.396-5.94-2.126-12.094-2.126-18.375c0-42.302,33.029-76.993,74.58-79.626
          c2.208-0.14,4.428-0.21,6.666-0.21c17.201,0,33.565,4.354,48.243,12.008c20.306-38.694,14.805-87.318-18.271-118.81
          c-5.733-5.459-12.217-10.134-19.243-13.882c-29.414-15.688-66.216-11.392-91.134,12.72c-5.717,5.534-14.931,5.48-20.584-0.122
          c-5.76-5.706-5.875-15.053-0.258-20.893c35.617-37.031,90.354-46.066,135.532-21.972c10.463,5.58,19.986,12.637,28.248,20.767
          c41.309,40.669,45.378,104.912,12.6,150.395C207.262,246.611,218.471,242.417,228.377,236.46z M308.854,167.361
          c0-21.677,17.573-39.25,39.25-39.25c21.677,0,39.25,17.573,39.25,39.25c0,21.677-17.573,39.25-39.25,39.25
          C326.427,206.611,308.854,189.038,308.854,167.361z M323.08,124.936c-20.627-14.498-34.026-38.384-34.026-65.372
          c0-44.183,35.817-80,80-80s80,35.817,80,80c0,26.963-13.376,50.83-33.978,65.332c-6.684,4.706-15.895,3.08-20.574-3.633
          c-4.678-6.713-3.033-15.939,3.675-20.624c13.794-9.638,22.766-25.567,22.766-43.513c0-29.742-24.11-53.852-53.852-53.852
          s-53.852,24.11-53.852,53.852c0,17.923,8.948,33.832,22.721,43.479c6.699,4.693,8.332,13.922,3.647,20.629
          C338.922,127.941,329.754,129.627,323.08,124.936z M131.792,233.229c-29.789,2.831-52.917,27.873-52.917,58.375
          c0,4.406,0.512,8.723,1.492,12.889c2.74,11.666,8.094,22.45,15.408,31.822c17.118,21.936,43.81,36.142,73.308,36.142
          c9.073,0,17.892-1.349,26.234-3.846c29.417-8.803,51.041-36.157,51.041-68.51c0-5.432-0.602-10.785-1.753-15.956
          c-3.155-14.17-10.749-26.945-21.285-36.319c-11.89-10.58-27.181-16.733-43.83-16.733
          C163.791,231.092,148.016,231.688,131.792,233.229z M450.046,260.407c-9.529,14.613-28.718,19.344-43.08,10.617
          c-8.983-5.459-13.682-15.353-13.433-25.263l1.838-81.824c0.187-8.156-6.436-14.779-14.593-14.593
          c-8.156,0.187-14.779,6.436-14.593,14.593l1.838,81.824c0.513,20.505,10.237,40.978,28.823,52.272
          c29.715,18.056,69.412,8.271,87.05-21.229c4.276-7.151,1.968-16.435-5.183-20.711C471.563,251.817,462.279,254.125,450.046,260.407
          z"/>
  </g>
</svg>
